<?xml version="1.0" encoding="UTF-8"?>
<svg xmlns="http://www.w3.org/2000/svg" width="900" height="220" viewBox="0 0 900 220" role="img" aria-labelledby="title desc">
  <title id="title">GitHub Activity — h4rdl0ckl3z</title>
  <desc id="desc">Public GitHub events over the last 30 days.</desc>
  <rect width="100%" height="100%" rx="14" fill="#0d1117"/>
  <g font-family="-apple-system,BlinkMacSystemFont,'Segoe UI',sans-serif" fill="#f0f6fc">
    <text x="42" y="25" font-size="15" font-weight="600">GitHub Activity</text>
    <text x="882" y="25" text-anchor="end" font-size="12" fill="#8b949e">30 days</text>
  </g>
  <g color="#58a6ff">
    <rect x="42.00" y="184.00" width="23.17" height="2.00" rx="3" fill="currentColor" opacity="0.18"><title>2026-08-03: 0 public events</title></rect>
<rect x="70.17" y="184.00" width="23.17" height="2.00" rx="3" fill="currentColor" opacity="0.18"><title>2026-08-04: 0 public events</title></rect>
<rect x="98.33" y="184.00" width="23.17" height="2.00" rx="3" fill="currentColor" opacity="0.18"><title>2026-08-05: 0 public events</title></rect>
<rect x="126.50" y="184.00" width="23.17" height="2.00" rx="3" fill="currentColor" opacity="0.18"><title>2026-08-06: 0 public events</title></rect>
<rect x="154.67" y="184.00" width="23.17" height="2.00" rx="3" fill="currentColor" opacity="0.18"><title>2026-08-07: 0 public events</title></rect>
<rect x="182.83" y="184.00" width="23.17" height="2.00" rx="3" fill="currentColor" opacity="0.18"><title>2026-08-08: 0 public events</title></rect>
<rect x="211.00" y="184.00" width="23.17" height="2.00" rx="3" fill="currentColor" opacity="0.18"><title>2026-08-09: 0 public events</title></rect>
<rect x="239.17" y="184.00" width="23.17" height="2.00" rx="3" fill="currentColor" opacity="0.18"><title>2026-08-10: 0 public events</title></rect>
<rect x="267.33" y="184.00" width="23.17" height="2.00" rx="3" fill="currentColor" opacity="0.18"><title>2026-08-11: 0 public events</title></rect>
<rect x="295.50" y="184.00" width="23.17" height="2.00" rx="3" fill="currentColor" opacity="0.18"><title>2026-08-12: 0 public events</title></rect>
<rect x="323.67" y="184.00" width="23.17" height="2.00" rx="3" fill="currentColor" opacity="0.18"><title>2026-08-13: 0 public events</title></rect>
<rect x="351.83" y="184.00" width="23.17" height="2.00" rx="3" fill="currentColor" opacity="0.18"><title>2026-08-14: 0 public events</title></rect>
<rect x="380.00" y="184.00" width="23.17" height="2.00" rx="3" fill="currentColor" opacity="0.18"><title>2026-08-15: 0 public events</title></rect>
<rect x="408.17" y="184.00" width="23.17" height="2.00" rx="3" fill="currentColor" opacity="0.18"><title>2026-08-16: 0 public events</title></rect>
<rect x="436.33" y="184.00" width="23.17" height="2.00" rx="3" fill="currentColor" opacity="0.18"><title>2026-08-17: 0 public events</title></rect>
<rect x="464.50" y="184.00" width="23.17" height="2.00" rx="3" fill="currentColor" opacity="0.18"><title>2026-08-18: 0 public events</title></rect>
<rect x="492.67" y="184.00" width="23.17" height="2.00" rx="3" fill="currentColor" opacity="0.18"><title>2026-08-19: 0 public events</title></rect>
<rect x="520.83" y="184.00" width="23.17" height="2.00" rx="3" fill="currentColor" opacity="0.18"><title>2026-08-20: 0 public events</title></rect>
<rect x="549.00" y="184.00" width="23.17" height="2.00" rx="3" fill="currentColor" opacity="0.18"><title>2026-08-21: 0 public events</title></rect>
<rect x="577.17" y="184.00" width="23.17" height="2.00" rx="3" fill="currentColor" opacity="0.18"><title>2026-08-22: 0 public events</title></rect>
<rect x="605.33" y="184.00" width="23.17" height="2.00" rx="3" fill="currentColor" opacity="0.18"><title>2026-08-23: 0 public events</title></rect>
<rect x="633.50" y="184.00" width="23.17" height="2.00" rx="3" fill="currentColor" opacity="0.18"><title>2026-08-24: 0 public events</title></rect>
<rect x="661.67" y="184.00" width="23.17" height="2.00" rx="3" fill="currentColor" opacity="0.18"><title>2026-08-25: 0 public events</title></rect>
<rect x="689.83" y="184.00" width="23.17" height="2.00" rx="3" fill="currentColor" opacity="0.18"><title>2026-08-26: 0 public events</title></rect>
<rect x="718.00" y="184.00" width="23.17" height="2.00" rx="3" fill="currentColor" opacity="0.18"><title>2026-08-27: 0 public events</title></rect>
<rect x="746.17" y="184.00" width="23.17" height="2.00" rx="3" fill="currentColor" opacity="0.18"><title>2026-08-28: 0 public events</title></rect>
<rect x="774.33" y="154.29" width="23.17" height="31.71" rx="3" fill="currentColor" opacity="0.85"><title>2026-08-29: 3 public events</title></rect>
<rect x="802.50" y="38.00" width="23.17" height="148.00" rx="3" fill="currentColor" opacity="0.85"><title>2026-08-30: 14 public events</title></rect>
<rect x="830.67" y="184.00" width="23.17" height="2.00" rx="3" fill="currentColor" opacity="0.18"><title>2026-08-31: 0 public events</title></rect>
<rect x="858.83" y="184.00" width="23.17" height="2.00" rx="3" fill="currentColor" opacity="0.18"><title>2026-09-01: 0 public events</title></rect>
  </g>
  <g font-family="-apple-system,BlinkMacSystemFont,'Segoe UI',sans-serif" font-size="10" fill="#8b949e">
    <text x="42" y="210">2026-08-03</text>
    <text x="882" y="210" text-anchor="end">2026-09-01</text>
  </g>
</svg>
